<?xml version="1.0" encoding="UTF-8"?>
<svg width="18px" height="18px" viewBox="0 0 18 18" version="1.1" xmlns="http://www.w3.org/2000/svg" xmlns:xlink="http://www.w3.org/1999/xlink">
    <!-- Generator: Sketch 44.1 (41455) - http://www.bohemiancoding.com/sketch -->
    <title>drawer_icon_colored</title>
    <desc>Created with Sketch.</desc>
    <defs></defs>
    <g id="Page-1" stroke="none" stroke-width="1" fill="none" fill-rule="evenodd">
        <g id="drawer_icon_colored" fill-rule="nonzero" fill="#0ABE51">
            <path d="M1.45281176,6.46357333 L4.66210588,1.06624 L13.0617529,1.06624 L16.2615176,6.46357333 L1.45281176,6.46357333 Z M12.7864588,9.67957333 L12.2835176,11.6123733 C12.2221059,11.84704 12.0124588,12.01024 11.7710471,12.01024 L5.94751765,12.01024 C5.70716471,12.01024 5.49645882,11.84704 5.43504706,11.6123733 L4.93210588,9.67957333 C4.85798824,9.39370667 5.0274,9.10250667 5.31010588,9.02784 C5.59281176,8.94890667 5.88292941,9.12277333 5.95704706,9.40864 L6.35622353,10.9435733 L11.3623412,10.9435733 L11.7615176,9.40864 C11.8366941,9.12277333 12.1246941,8.94890667 12.4084588,9.02784 C12.6911647,9.10250667 12.8605765,9.39370667 12.7864588,9.67957333 L12.7864588,9.67957333 Z M17.6676353,6.78890667 C17.6591647,6.76650667 17.6612824,6.74304 17.6496353,6.72277333 L13.8166941,0.25984 C13.7203412,0.0987733333 13.5477529,-0.000426666667 13.3624588,-0.000426666667 L4.36245882,-0.000426666667 C4.17610588,-0.000426666667 4.00351765,0.0977066667 3.90822353,0.25984 L0.0646941176,6.72277333 C0.0530470588,6.74304 0.0562235294,6.76544 0.0466941176,6.78677333 C0.0234,6.83904 0.00751764706,6.88810667 0.00222352941,6.94464 C-0.00201176471,6.97984 0.000105882353,7.01184 0.00328235294,7.04597333 C0.0054,7.07157333 -0.00201176471,7.09824 0.00434117647,7.12384 L1.85728235,14.70784 C2.03092941,15.42464 2.66516471,15.9249067 3.39892941,15.9249067 L14.3143412,15.9355733 C15.0470471,15.9355733 15.6812824,15.4299733 15.8559882,14.70784 L17.7089294,7.12384 C17.7152824,7.09824 17.7078706,7.07264 17.7099882,7.04704 C17.7131647,7.01184 17.7152824,6.97984 17.7110471,6.94570667 C17.7068118,6.89024 17.6898706,6.84010667 17.6676353,6.78890667 L17.6676353,6.78890667 Z" id="Fill-1"></path>
            <path d="M3.7638,4.53024 C3.7638,4.82464 4.00097647,5.06357333 4.29321176,5.06357333 L13.4255647,5.06357333 C13.7178,5.06357333 13.9549765,4.82464 13.9549765,4.53024 C13.9549765,4.23584 13.7178,3.99690667 13.4255647,3.99690667 L4.29321176,3.99690667 C4.00097647,3.99690667 3.7638,4.23584 3.7638,4.53024" id="Fill-4"></path>
            <path d="M5.88144706,2.93024 L11.8373294,2.93024 C12.1295647,2.93024 12.3667412,2.69130667 12.3667412,2.39690667 C12.3667412,2.10250667 12.1295647,1.86357333 11.8373294,1.86357333 L5.88144706,1.86357333 C5.58921176,1.86357333 5.35203529,2.10250667 5.35203529,2.39690667 C5.35203529,2.69130667 5.58921176,2.93024 5.88144706,2.93024" id="Fill-6"></path>
        </g>
    </g>
</svg>